<svg xmlns="http://www.w3.org/2000/svg" version="1.1" xmlns:xlink="http://www.w3.org/1999/xlink" xmlns:svgjs="http://svgjs.dev/svgjs" width="2000" height="1999" viewBox="0 0 2000 1999"><g transform="matrix(1,0,0,1,-0.431486880466764,-0.4312711370263287)"><svg viewBox="0 0 343 343" data-background-color="#ffffff" preserveAspectRatio="xMidYMid meet" height="1999" width="2000" xmlns="http://www.w3.org/2000/svg" xmlns:xlink="http://www.w3.org/1999/xlink"><g id="tight-bounds" transform="matrix(1,0,0,1,0.0740000000000407,0.07400000000001228)"><svg viewBox="0 0 342.85155851775386 342.85155851775386" height="342.85155851775386" width="342.85155851775386"><g><svg></svg></g><g><svg viewBox="0 0 342.85155851775386 342.85155851775386" height="342.85155851775386" width="342.85155851775386"><g><path d="M0 171.426c0-94.676 76.75-171.426 171.426-171.426 94.676 0 171.426 76.75 171.426 171.426 0 94.676-76.75 171.426-171.426 171.426-94.676 0-171.426-76.75-171.426-171.426zM171.426 328.264c86.62 0 156.839-70.219 156.838-156.838 0-86.62-70.219-156.839-156.838-156.839-86.62 0-156.839 70.219-156.839 156.839 0 86.62 70.219 156.839 156.839 156.838z" data-fill-palette-color="tertiary" fill="#ffffff" stroke="transparent"></path><ellipse rx="164.56874808852186" ry="164.56874808852186" cx="171.42577925887693" cy="171.42577925887693" fill="#ffffff" stroke="transparent" stroke-width="0" fill-opacity="1" data-fill-palette-color="tertiary"></ellipse></g><g transform="matrix(1,0,0,1,64.84655864529837,90.54818485521001)"><svg viewBox="0 0 213.1584412271571 161.75518880733384" height="161.75518880733384" width="213.1584412271571"><g><svg viewBox="0 0 213.1584412271571 161.75518880733384" height="161.75518880733384" width="213.1584412271571"><g><svg viewBox="0 0 213.1584412271571 161.75518880733384" height="161.75518880733384" width="213.1584412271571"><g id="textblocktransform"><svg viewBox="0 0 213.1584412271571 161.75518880733384" height="161.75518880733384" width="213.1584412271571" id="textblock"><g><svg viewBox="0 0 213.1584412271571 161.75518880733384" height="161.75518880733384" width="213.1584412271571"><g transform="matrix(1,0,0,1,0,0)"><svg width="213.1584412271571" viewBox="2.65 -34.3 45.2 34.3" height="161.75518880733384" data-palette-color="#000000"><path d="M2.65-34.3L15.55-34.3 15.55-29.85 11.55-29.85 11.55-4.45 15.55-4.45 15.55 0 2.65 0 2.65-4.45 6.65-4.45 6.65-29.85 2.65-29.85 2.65-34.3ZM37.6-34.3Q40.5-34.3 42.85-33 45.2-31.7 46.52-29.43 47.85-27.15 47.85-24.3L47.85-24.3Q47.85-21.45 46.52-19.18 45.2-16.9 42.85-15.6 40.5-14.3 37.6-14.3L37.6-14.3 27.7-14.3 27.7 0 22.8 0 22.8-34.3 37.6-34.3ZM37.15-29.85L27.7-29.85 27.7-18.75 37.15-18.75Q39.5-18.75 41.22-20.38 42.95-22 42.95-24.3L42.95-24.3Q42.95-26.65 41.22-28.25 39.5-29.85 37.15-29.85L37.15-29.85Z" opacity="1" transform="matrix(1,0,0,1,0,0)" fill="#000000" class="wordmark-text-0" data-fill-palette-color="quaternary" id="text-0"></path></svg></g></svg></g></svg></g></svg></g><g></g></svg></g></svg></g></svg></g><defs></defs></svg><rect width="342.85155851775386" height="342.85155851775386" fill="none" stroke="none" visibility="hidden"></rect></g></svg></g></svg>